<svg width="20" height="25" viewBox="0 0 20 25" fill="none" xmlns="http://www.w3.org/2000/svg">
<path d="M10 0.861572C10.5 3.83032 10.75 5.84595 10.75 6.90845C10.75 8.09595 10.4531 9.1272 9.85938 10.0022C9.29688 10.8459 8.51562 11.4553 7.51562 11.8303L8.125 22.9866C8.15625 23.2991 8.04688 23.5647 7.79688 23.7834C7.57812 24.0334 7.3125 24.1584 7 24.1584H4C3.6875 24.1584 3.40625 24.0334 3.15625 23.7834C2.9375 23.5647 2.84375 23.2991 2.875 22.9866L3.48438 11.8303C2.82812 11.5803 2.25 11.2366 1.75 10.7991C1.28125 10.3303 0.90625 9.76782 0.625 9.11157C0.375 8.45532 0.25 7.72095 0.25 6.90845C0.25 5.84595 0.5 3.83032 1 0.861572C1.0625 0.392822 1.4375 0.158447 2.125 0.158447C2.8125 0.158447 3.1875 0.408447 3.25 0.908447V7.5647C3.28125 7.6272 3.40625 7.65845 3.625 7.65845C3.84375 7.65845 3.96875 7.6272 4 7.5647C4.03125 7.22095 4.07812 6.5022 4.14062 5.40845C4.20312 4.28345 4.25 3.26782 4.28125 2.36157C4.34375 1.42407 4.375 0.939697 4.375 0.908447C4.4375 0.408447 4.8125 0.158447 5.5 0.158447C6.1875 0.158447 6.5625 0.408447 6.625 0.908447C6.65625 1.15845 6.78125 3.3772 7 7.5647C7.03125 7.6272 7.15625 7.65845 7.375 7.65845C7.59375 7.65845 7.71875 7.6272 7.75 7.5647V0.908447C7.8125 0.408447 8.1875 0.158447 8.875 0.158447C9.5625 0.158447 9.9375 0.392822 10 0.861572ZM15.5781 14.2678C14.2031 13.1741 13.25 11.9553 12.7188 10.6116C12.1875 9.26782 12.0625 8.0022 12.3438 6.8147C12.6562 5.6272 13.1406 4.51782 13.7969 3.48657C14.4531 2.45532 15.2188 1.64282 16.0938 1.04907C17 0.455322 17.8438 0.158447 18.625 0.158447C18.9375 0.158447 19.2031 0.267822 19.4219 0.486572C19.6406 0.705322 19.75 0.970947 19.75 1.28345V23.0334C19.75 23.3459 19.6406 23.6116 19.4219 23.8303C19.2031 24.0491 18.9375 24.1584 18.625 24.1584H16C15.6562 24.1584 15.375 24.0334 15.1562 23.7834C14.9375 23.5334 14.8438 23.2522 14.875 22.9397L15.5781 14.2678Z" fill="#FF4B3E"/>
</svg>
