<svg width="30" height="22" viewBox="0 0 30 22" fill="none" xmlns="http://www.w3.org/2000/svg">
<path d="M4.875 3.30505H2.625C1.96875 3.30505 1.5 3.82068 1.5 4.43005V9.30505H0.375C0.140625 9.30505 0 9.49255 0 9.68005V11.9301C0 12.1644 0.140625 12.3051 0.375 12.3051H1.5V17.1801C1.5 17.8363 1.96875 18.3051 2.625 18.3051H4.875C5.48438 18.3051 6 17.8363 6 17.1801V4.43005C6 3.82068 5.48438 3.30505 4.875 3.30505ZM29.625 9.30505H28.5V4.43005C28.5 3.82068 27.9844 3.30505 27.375 3.30505H25.125C24.4688 3.30505 24 3.82068 24 4.43005V17.1801C24 17.8363 24.4688 18.3051 25.125 18.3051H27.375C27.9844 18.3051 28.5 17.8363 28.5 17.1801V12.3051H29.625C29.8125 12.3051 30 12.1644 30 11.9301V9.68005C30 9.49255 29.8125 9.30505 29.625 9.30505ZM21.375 0.305054H19.125C18.4688 0.305054 18 0.820679 18 1.43005V9.30505H12V1.43005C12 0.820679 11.4844 0.305054 10.875 0.305054H8.625C7.96875 0.305054 7.5 0.820679 7.5 1.43005V20.1801C7.5 20.8363 7.96875 21.3051 8.625 21.3051H10.875C11.4844 21.3051 12 20.8363 12 20.1801V12.3051H18V20.1801C18 20.8363 18.4688 21.3051 19.125 21.3051H21.375C21.9844 21.3051 22.5 20.8363 22.5 20.1801V1.43005C22.5 0.820679 21.9844 0.305054 21.375 0.305054Z" fill="#F58F29"/>
</svg>
