<svg width="27" height="23" viewBox="0 0 27 23" fill="none" xmlns="http://www.w3.org/2000/svg">
<path d="M27 9.68756C27 9.07819 26.4844 8.56256 25.875 8.56256H22.6875L17.6719 1.71881C17.2031 1.01569 16.2656 0.875061 15.6094 1.39069C14.9062 1.85944 14.7656 2.79694 15.2812 3.45319L18.9844 8.56256H7.96875L11.6719 3.45319C12.1875 2.79694 12.0469 1.85944 11.3438 1.39069C10.6875 0.875061 9.75 1.01569 9.28125 1.71881L4.26562 8.56256H1.125C0.46875 8.56256 0 9.07819 0 9.68756V10.4376C0 11.0938 0.46875 11.5626 1.125 11.5626H1.5L2.71875 20.1407C2.85938 21.2657 3.79688 22.0626 4.92188 22.0626H22.0312C23.1562 22.0626 24.0938 21.2657 24.2344 20.1407L25.5 11.5626H25.875C26.4844 11.5626 27 11.0938 27 10.4376V9.68756ZM14.625 17.9376C14.625 18.5938 14.1094 19.0626 13.5 19.0626C12.8438 19.0626 12.375 18.5938 12.375 17.9376V12.6876C12.375 12.0782 12.8438 11.5626 13.5 11.5626C14.1094 11.5626 14.625 12.0782 14.625 12.6876V17.9376ZM19.875 17.9376C19.875 18.5938 19.3594 19.0626 18.75 19.0626C18.0938 19.0626 17.625 18.5938 17.625 17.9376V12.6876C17.625 12.0782 18.0938 11.5626 18.75 11.5626C19.3594 11.5626 19.875 12.0782 19.875 12.6876V17.9376ZM9.375 17.9376C9.375 18.5938 8.85938 19.0626 8.25 19.0626C7.59375 19.0626 7.125 18.5938 7.125 17.9376V12.6876C7.125 12.0782 7.59375 11.5626 8.25 11.5626C8.85938 11.5626 9.375 12.0782 9.375 12.6876V17.9376Z" fill="#235789"/>
</svg>
