<svg width="30" height="22" viewBox="0 0 30 22" fill="none" xmlns="http://www.w3.org/2000/svg">
<path d="M28.2891 6.57666H25.0625L24.1328 4.33447C23.2031 1.98291 20.9609 0.45166 18.4453 0.45166H11.5C8.98438 0.45166 6.74219 1.98291 5.8125 4.33447L4.88281 6.57666H1.65625C1.21875 6.57666 0.890625 7.01416 1 7.39697L1.32812 8.70947C1.38281 9.0376 1.65625 9.20166 1.98438 9.20166H3.07812C2.3125 9.85791 1.875 10.7876 1.875 11.8267V14.4517C1.875 15.3813 2.20312 16.147 2.75 16.7485V19.7017C2.75 20.686 3.51562 21.4517 4.5 21.4517H6.25C7.17969 21.4517 8 20.686 8 19.7017V17.9517H22V19.7017C22 20.686 22.7656 21.4517 23.75 21.4517H25.5C26.4297 21.4517 27.25 20.686 27.25 19.7017V16.7485C27.7422 16.147 28.125 15.3813 28.125 14.4517V11.8267C28.125 10.7876 27.6328 9.85791 26.8672 9.20166H28.0156C28.2891 9.20166 28.5625 9.0376 28.6172 8.70947L28.9453 7.39697C29.0547 7.01416 28.7266 6.57666 28.2891 6.57666ZM9.03906 5.64697C9.47656 4.60791 10.4062 3.95166 11.5 3.95166H18.4453C19.5391 3.95166 20.4688 4.60791 20.9062 5.64697L22 8.32666H8L9.03906 5.64697ZM6.25 14.4517C5.15625 14.4517 4.5 13.7954 4.5 12.7017C4.5 11.6626 5.15625 10.9517 6.25 10.9517C7.28906 10.9517 8.875 12.5376 8.875 13.5767C8.875 14.6157 7.28906 14.4517 6.25 14.4517ZM23.75 14.4517C22.6562 14.4517 21.125 14.6157 21.125 13.5767C21.125 12.5376 22.6562 10.9517 23.75 10.9517C24.7891 10.9517 25.5 11.6626 25.5 12.7017C25.5 13.7954 24.7891 14.4517 23.75 14.4517Z" fill="#DB3069"/>
</svg>
