<svg width="26" height="21" viewBox="0 0 26 21" fill="none" xmlns="http://www.w3.org/2000/svg">
<path d="M24.0234 5.01373C24.7005 6.0554 24.7917 7.16217 24.2969 8.33405C23.8021 9.50592 22.9427 10.17 21.7188 10.3262C21.5365 10.3523 21.3542 10.3653 21.1719 10.3653C20.026 10.3653 19.0755 9.93561 18.3203 9.07623C17.5391 9.93561 16.5755 10.3653 15.4297 10.3653C14.2839 10.3653 13.3203 9.93561 12.5391 9.07623C11.7578 9.93561 10.7943 10.3653 9.64844 10.3653C8.5026 10.3653 7.53906 9.93561 6.75781 9.07623C6.0026 9.93561 5.03906 10.3653 3.86719 10.3653C3.71094 10.3653 3.54167 10.3523 3.35938 10.3262C2.13542 10.17 1.27604 9.50592 0.78125 8.33405C0.286458 7.16217 0.377604 6.0554 1.05469 5.01373L3.59375 0.951233C3.82812 0.560608 4.17969 0.365295 4.64844 0.365295H20.4297C20.8984 0.365295 21.25 0.560608 21.4844 0.951233L24.0234 5.01373ZM21.2109 11.6153C21.4453 11.6153 21.6797 11.6023 21.9141 11.5762C22.0964 11.5502 22.3047 11.4981 22.5391 11.42V19.1153C22.5391 19.4538 22.4089 19.7403 22.1484 19.9747C21.9141 20.2351 21.6276 20.3653 21.2891 20.3653H3.78906C3.55469 20.3653 3.34635 20.3002 3.16406 20.17C2.98177 20.0658 2.82552 19.9226 2.69531 19.7403C2.59115 19.558 2.53906 19.3497 2.53906 19.1153V11.42C2.77344 11.4981 2.98177 11.5502 3.16406 11.5762C3.39844 11.6023 3.63281 11.6153 3.86719 11.6153C4.20573 11.6153 4.59635 11.5632 5.03906 11.459V15.3653H20.0391V11.459C20.4557 11.5632 20.8464 11.6153 21.2109 11.6153Z" fill="#9BC53D"/>
</svg>
